<?xml version="1.0" standalone="no"?>
<!DOCTYPE svg PUBLIC "-//W3C//DTD SVG 20010904//EN"
 "http://www.w3.org/TR/2001/REC-SVG-20010904/DTD/svg10.dtd">
<svg version="1.0" xmlns="http://www.w3.org/2000/svg"
 width="701.000000pt" height="701.000000pt" viewBox="0 0 701.000000 701.000000"
 preserveAspectRatio="xMidYMid meet">
<metadata>
Created by potrace 1.16, written by Peter Selinger 2001-2019
</metadata>
<g transform="translate(0.000000,701.000000) scale(0.100000,-0.100000)"
fill="#000000" stroke="none">
<path d="M5423 5948 c-41 -22 -64 -36 -196 -124 -34 -23 -98 -60 -142 -84 -44
-23 -86 -47 -94 -53 -49 -40 -1100 -558 -1180 -582 -13 -4 -79 -34 -148 -66
-69 -32 -129 -59 -134 -59 -17 0 -374 -180 -429 -216 -30 -20 -64 -40 -75 -44
-37 -14 -189 -141 -253 -211 -155 -169 -231 -416 -188 -614 16 -75 64 -185 81
-185 8 0 16 18 20 40 7 43 47 85 91 96 25 6 94 1 147 -12 l27 -6 0 143 c0 127
3 153 25 219 14 41 36 93 50 115 13 22 34 57 45 79 47 84 189 206 344 295 91
52 365 146 481 166 22 3 65 14 95 24 47 16 111 35 265 80 17 5 55 15 85 21 84
19 106 25 235 64 142 43 200 59 275 76 30 7 102 28 160 47 58 18 154 47 215
64 119 33 160 54 200 100 34 41 33 83 -4 120 -27 27 -51 34 -91 30 -8 -1 -40
-17 -70 -35 -58 -36 -69 -40 -310 -135 -322 -126 -670 -226 -670 -193 0 5 26
17 58 26 56 17 86 28 252 91 101 39 364 160 400 185 14 9 68 41 120 69 192
105 348 229 412 326 48 74 55 101 37 134 -20 36 -79 40 -136 9z"/>
<path d="M6515 5763 c-33 -14 -91 -49 -130 -78 -38 -28 -88 -64 -110 -78 -22
-15 -74 -49 -114 -77 -41 -27 -79 -50 -84 -50 -4 0 -43 -21 -85 -47 -42 -26
-111 -61 -152 -79 -41 -17 -120 -53 -175 -78 -55 -25 -105 -46 -111 -46 -6 0
-71 -23 -144 -51 -73 -28 -178 -62 -233 -75 -121 -30 -140 -39 -132 -63 3 -10
-5 -32 -20 -52 -13 -19 -35 -50 -48 -69 -14 -20 -41 -47 -61 -60 -41 -28 -49
-56 -13 -46 12 4 49 14 82 22 72 19 246 74 260 84 6 3 53 19 105 34 102 31
183 59 322 112 49 19 94 34 102 34 15 0 234 87 251 99 6 4 29 15 53 25 60 23
241 147 327 223 107 95 205 221 220 284 4 18 1 31 -10 43 -21 21 -28 20 -100
-11z"/>
<path d="M6045 5076 c-27 -8 -77 -24 -110 -36 -33 -12 -109 -39 -170 -60 -60
-21 -150 -55 -200 -75 -49 -20 -117 -45 -150 -54 -55 -17 -94 -32 -280 -107
-33 -13 -66 -24 -73 -24 -8 0 -75 -23 -150 -51 -76 -28 -168 -59 -207 -69 -38
-10 -70 -22 -69 -26 0 -5 4 -21 8 -35 9 -33 -32 -120 -77 -162 -39 -36 -26
-52 28 -33 50 18 181 57 305 91 329 89 885 275 1045 350 44 21 99 46 123 56
44 19 142 90 175 127 28 31 19 83 -16 100 -42 20 -126 24 -182 8z"/>
<path d="M4820 5003 c-114 -37 -515 -136 -620 -153 -86 -14 -204 -45 -340 -90
-52 -17 -115 -35 -140 -41 -53 -12 -286 -120 -350 -164 -65 -44 -170 -127
-170 -135 0 -4 -17 -29 -39 -56 -54 -69 -78 -120 -101 -219 -24 -102 -26 -219
-5 -298 8 -32 15 -66 15 -75 0 -9 27 -72 59 -138 66 -136 91 -235 91 -356 0
-81 11 -99 50 -78 38 20 62 81 62 157 0 60 -6 88 -40 175 -79 200 -76 190 -77
353 l0 150 39 73 c99 186 326 336 671 446 44 14 101 30 127 36 25 5 57 14 70
19 24 9 247 79 403 126 125 38 275 103 308 134 15 14 42 48 59 75 31 47 31 49
13 62 -22 17 -27 16 -85 -3z"/>
<path d="M5845 4636 c-33 -13 -73 -28 -90 -34 -16 -5 -52 -17 -80 -27 -27 -9
-97 -32 -155 -52 -58 -19 -145 -46 -195 -58 -49 -13 -167 -46 -262 -74 -94
-28 -178 -51 -185 -51 -15 0 -166 -41 -278 -75 -67 -21 -75 -26 -72 -47 10
-86 -8 -139 -74 -217 -21 -24 -33 -46 -28 -51 12 -11 149 12 256 44 251 73
331 99 468 151 52 20 118 43 145 52 28 8 106 38 175 65 69 28 158 61 197 74
104 34 196 77 241 114 76 61 107 161 60 194 -30 21 -51 19 -123 -8z"/>
<path d="M4395 4576 c-44 -13 -102 -27 -130 -31 -132 -18 -507 -100 -560 -122
-119 -49 -214 -113 -271 -182 -46 -55 -52 -67 -40 -79 33 -33 273 -24 481 18
55 11 116 23 135 25 227 35 401 106 462 189 80 108 91 207 24 205 -12 0 -57
-11 -101 -23z"/>
<path d="M4285 4168 c-181 -59 -508 -98 -822 -98 l-143 0 -14 -34 c-8 -19 -17
-59 -21 -89 l-7 -54 44 -11 c23 -6 87 -16 140 -23 103 -13 281 -3 488 27 52 8
129 19 170 24 143 20 225 73 281 182 23 45 24 62 3 82 -20 20 -44 19 -119 -6z"/>
<path d="M5095 4055 c-27 -7 -95 -30 -150 -50 -55 -20 -116 -41 -135 -46 -19
-6 -76 -24 -127 -40 -160 -51 -293 -79 -373 -79 -46 0 -81 -5 -88 -12 -16 -16
-16 -123 1 -136 13 -11 280 0 417 18 450 58 590 102 697 220 48 53 36 96 -34
126 -41 17 -142 17 -208 -1z"/>
<path d="M3981 3809 c-36 -14 -242 -31 -471 -38 -235 -7 -225 -2 -189 -101 40
-109 41 -110 185 -110 154 0 404 17 464 31 112 27 160 69 160 141 0 55 -32 88
-83 87 -23 0 -53 -5 -66 -10z"/>
<path d="M2835 3739 c-11 -6 -36 -27 -56 -46 -26 -25 -61 -42 -125 -62 -84
-27 -91 -31 -122 -77 -64 -96 -118 -157 -168 -193 -118 -83 -211 -166 -430
-385 -194 -194 -245 -251 -319 -359 -98 -141 -125 -169 -202 -203 -101 -45
-168 -54 -396 -53 -166 2 -224 -2 -269 -14 -195 -54 -276 -202 -199 -362 34
-71 133 -176 211 -226 58 -37 188 -102 230 -114 14 -4 85 -32 158 -62 73 -29
156 -60 185 -68 29 -8 102 -30 162 -50 208 -68 260 -79 385 -79 74 1 138 7
180 18 73 18 214 72 245 93 11 7 27 13 36 13 15 0 130 66 235 136 28 19 108
82 178 141 128 110 229 181 333 235 148 78 253 128 267 128 9 0 40 11 69 24
29 13 89 33 133 46 292 83 269 75 346 120 132 79 203 174 243 325 24 91 29
203 13 249 -14 39 -16 40 -99 62 -47 12 -111 34 -143 48 -32 14 -69 26 -82 26
-12 0 -53 16 -91 36 l-68 36 -154 -1 c-148 0 -155 -1 -180 -24 -30 -28 -168
-97 -194 -97 -22 0 -23 57 -1 120 9 25 18 72 21 105 4 52 0 75 -37 175 -23 63
-48 140 -56 170 -24 91 -33 105 -89 139 -59 36 -119 48 -150 30z"/>
<path d="M5099 3685 c-10 -10 -131 -36 -249 -54 -235 -36 -315 -43 -475 -46
-245 -4 -304 -16 -339 -69 -40 -63 -9 -110 80 -120 33 -4 86 -11 119 -16 91
-14 282 -30 366 -30 143 1 371 35 502 76 101 31 114 39 137 77 39 63 16 147
-45 173 -33 13 -87 19 -96 9z"/>
<path d="M3575 3484 c-74 -10 -146 -28 -154 -38 -5 -6 -10 -54 -12 -106 l-4
-94 30 -15 c18 -9 70 -17 131 -19 87 -4 108 -1 148 17 98 43 171 127 164 188
-2 14 -16 35 -31 47 -24 18 -44 21 -135 22 -59 1 -120 0 -137 -2z"/>
<path d="M3920 3269 c-24 -22 -57 -43 -72 -46 -16 -3 -31 -9 -33 -13 -9 -15
55 -59 93 -65 20 -3 96 -17 167 -30 72 -13 166 -26 210 -29 44 -3 103 -8 132
-12 37 -5 69 -1 114 12 108 32 185 132 134 174 -10 8 -82 13 -247 15 -168 1
-255 7 -313 19 -117 24 -133 21 -185 -25z"/>
</g>
</svg>
